<svg width="40" height="33" viewBox="0 0 40 33" fill="none" xmlns="http://www.w3.org/2000/svg">
<path d="M35.651 10.4914V8.49595C35.6556 6.5065 34.8673 4.5972 33.4606 3.19044C32.0538 1.78368 30.1445 0.995419 28.1551 1.00002H26.7149M4.41799 10.4914V8.49595C4.4134 6.50951 5.19928 4.60285 6.60228 3.19659C8.00529 1.79033 9.91012 1.00004 11.8966 1.00004H13.4062M35.651 18.1088V24.7371C35.6556 26.7265 34.8673 28.6358 33.4606 30.0426C32.0538 31.4494 30.1445 32.2376 28.1551 32.233H26.7149M4.41799 18.1088V24.7371C4.41339 26.7265 5.20165 28.6358 6.60841 30.0426C8.01517 31.4494 9.92447 32.2376 11.9139 32.233H13.4062" stroke="#200E32" stroke-width="1.5" stroke-linecap="round" stroke-linejoin="round"/>
<path d="M39 18.1079H1" stroke="#200E32" stroke-width="1.5" stroke-linecap="round" stroke-linejoin="round"/>
</svg>
