<svg width="50" height="50" viewBox="0 0 50 50" fill="none" xmlns="http://www.w3.org/2000/svg">
<mask id="mask0_1_3464" style="mask-type:luminance" maskUnits="userSpaceOnUse" x="4" y="6" width="43" height="41">
<path fill-rule="evenodd" clip-rule="evenodd" d="M4.16675 6.24976H46.8178V46.8768H4.16675V6.24976Z" fill="white"/>
</mask>
<g mask="url(#mask0_1_3464)">
<path fill-rule="evenodd" clip-rule="evenodd" d="M7.96617 25.2563C10.887 34.3438 22.4266 41.6917 25.4933 43.5104C28.5703 41.6729 40.1933 34.2438 43.0203 25.2646C44.8766 19.4604 43.1537 12.1083 36.3078 9.90209C32.9912 8.8375 29.1224 9.48542 26.4516 11.5521C25.8933 11.9813 25.1183 11.9896 24.5558 11.5646C21.7266 9.4375 18.0308 8.81459 14.662 9.90209C7.82659 12.1063 6.10992 19.4583 7.96617 25.2563ZM25.4953 46.8771C25.237 46.8771 24.9808 46.8146 24.7474 46.6875C24.0953 46.3313 8.73492 37.8646 4.99117 26.2104C4.98909 26.2104 4.98909 26.2083 4.98909 26.2083C2.63909 18.8708 5.25575 9.65 13.7037 6.92709C17.6703 5.64375 21.9933 6.20834 25.4891 8.41459C28.8766 6.27292 33.3766 5.68125 37.2641 6.92709C45.7203 9.65417 48.3453 18.8729 45.9974 26.2083C42.3745 37.7292 26.9016 46.3229 26.2453 46.6833C26.012 46.8125 25.7537 46.8771 25.4953 46.8771Z" fill="black"/>
</g>
<path fill-rule="evenodd" clip-rule="evenodd" d="M37.8203 22.1352C37.0141 22.1352 36.3308 21.5164 36.2641 20.6997C36.1266 18.9872 34.9808 17.5414 33.3495 17.0143C32.5266 16.7477 32.0766 15.8664 32.3412 15.0477C32.6099 14.2268 33.4828 13.781 34.3078 14.0393C37.1474 14.9581 39.137 17.4727 39.3808 20.4456C39.4495 21.306 38.8099 22.0602 37.9495 22.1289C37.9058 22.1331 37.8641 22.1352 37.8203 22.1352Z" fill="black"/>
</svg>
