<svg width="97" height="97" viewBox="0 0 97 97" fill="none" xmlns="http://www.w3.org/2000/svg">
<path d="M42.5118 25.3131C47.2439 25.3131 51.7821 27.1929 55.1281 30.5389C58.4742 33.885 60.354 38.4232 60.354 43.1552C60.354 47.5746 58.7345 51.6371 56.0719 54.7664L56.813 55.5075H58.9815L72.7063 69.2322L68.5888 73.3497L54.8641 59.6249V57.4564L54.123 56.7153C50.9937 59.3779 46.9312 60.9974 42.5118 60.9974C37.7798 60.9974 33.2416 59.1176 29.8955 55.7715C26.5495 52.4255 24.6697 47.8873 24.6697 43.1552C24.6697 38.4232 26.5495 33.885 29.8955 30.5389C33.2416 27.1929 37.7798 25.3131 42.5118 25.3131V25.3131ZM42.5118 30.803C35.6495 30.803 30.1596 36.2929 30.1596 43.1552C30.1596 50.0176 35.6495 55.5075 42.5118 55.5075C49.3742 55.5075 54.8641 50.0176 54.8641 43.1552C54.8641 36.2929 49.3742 30.803 42.5118 30.803Z" fill="#686B6F"/>
</svg>
