<svg width="373" height="80" viewBox="0 0 373 80" fill="none" xmlns="http://www.w3.org/2000/svg">
<path d="M100.579 50.6184C99.7803 50.6184 99.0674 50.376 98.44 49.8912C97.8126 49.3779 97.4989 48.7505 97.4989 48.009V23.2837C97.4989 22.5422 97.7413 21.9291 98.2261 21.4443C98.7394 20.931 99.3668 20.6743 100.108 20.6743H112.428C113.911 20.6743 115.294 21.0735 116.578 21.8721C117.889 22.642 118.945 23.7257 119.743 25.1231C120.542 26.492 120.941 28.0748 120.941 29.8714C120.941 30.9551 120.713 32.0103 120.256 33.0369C119.829 34.0636 119.23 34.9904 118.46 35.8175C117.718 36.6445 116.877 37.2861 115.936 37.7424L115.979 36.7586C116.777 37.1863 117.433 37.6997 117.946 38.2985C118.488 38.8689 118.902 39.4963 119.187 40.1807C119.501 40.8367 119.686 41.5496 119.743 42.3196C119.857 43.0326 119.928 43.66 119.957 44.2018C120.014 44.7437 120.1 45.1999 120.214 45.5707C120.356 45.9414 120.613 46.2266 120.984 46.4262C121.611 46.797 121.996 47.3388 122.139 48.0518C122.31 48.7362 122.153 49.3493 121.668 49.8912C121.354 50.2619 120.955 50.5043 120.47 50.6184C119.985 50.704 119.501 50.704 119.016 50.6184C118.531 50.5043 118.132 50.3617 117.818 50.1906C117.333 49.9055 116.848 49.4919 116.364 48.9501C115.879 48.3797 115.48 47.624 115.166 46.6829C114.881 45.7418 114.738 44.5298 114.738 43.0468C114.738 42.562 114.653 42.12 114.481 41.7207C114.31 41.293 114.068 40.9365 113.754 40.6513C113.441 40.3376 113.041 40.1094 112.556 39.9669C112.072 39.7957 111.501 39.7102 110.845 39.7102H102.204L102.846 38.7263V48.009C102.846 48.7505 102.646 49.3779 102.247 49.8912C101.848 50.376 101.292 50.6184 100.579 50.6184ZM102.247 35.3041H112.214C112.728 35.3041 113.227 35.076 113.711 34.6197C114.196 34.1349 114.596 33.4932 114.909 32.6947C115.223 31.8677 115.38 30.9694 115.38 29.9997C115.38 28.7449 115.038 27.704 114.353 26.877C113.697 26.0215 112.984 25.5937 112.214 25.5937H102.333L102.846 24.2248V36.3308L102.247 35.3041ZM136.736 51.0462C134.311 51.0462 132.201 50.5471 130.404 49.549C128.636 48.5223 127.267 47.1392 126.298 45.3996C125.357 43.66 124.886 41.6922 124.886 39.4963C124.886 36.9297 125.4 34.748 126.426 32.9514C127.481 31.1262 128.85 29.7288 130.533 28.7592C132.215 27.7896 133.998 27.3048 135.88 27.3048C137.334 27.3048 138.703 27.6042 139.987 28.2031C141.298 28.802 142.453 29.629 143.452 30.6842C144.45 31.7108 145.234 32.9086 145.804 34.2775C146.403 35.6464 146.703 37.1008 146.703 38.6408C146.674 39.3252 146.403 39.8813 145.89 40.3091C145.377 40.7369 144.778 40.9507 144.093 40.9507H127.752L126.469 36.673H142.168L141.227 37.5286V36.3736C141.17 35.5465 140.871 34.8051 140.329 34.1491C139.815 33.4932 139.16 32.9799 138.361 32.6092C137.591 32.2099 136.764 32.0103 135.88 32.0103C135.024 32.0103 134.226 32.1244 133.484 32.3525C132.743 32.5806 132.101 32.9656 131.559 33.5075C131.018 34.0493 130.59 34.7765 130.276 35.6891C129.962 36.6017 129.806 37.7567 129.806 39.1541C129.806 40.6941 130.119 42.0059 130.747 43.0896C131.403 44.1448 132.23 44.9575 133.228 45.5279C134.254 46.0698 135.338 46.3407 136.479 46.3407C137.534 46.3407 138.375 46.2551 139.003 46.084C139.63 45.9129 140.129 45.7133 140.5 45.4851C140.899 45.2285 141.256 45.0146 141.569 44.8435C142.083 44.5868 142.568 44.4585 143.024 44.4585C143.651 44.4585 144.165 44.6724 144.564 45.1001C144.992 45.5279 145.205 46.027 145.205 46.5973C145.205 47.3673 144.806 48.066 144.008 48.6934C143.266 49.3208 142.225 49.8769 140.885 50.3617C139.545 50.818 138.161 51.0462 136.736 51.0462ZM161.094 27.3048C162.72 27.3048 164.132 27.4759 165.329 27.8181C166.556 28.1603 167.497 28.6451 168.153 29.2725C168.837 29.8714 169.179 30.5986 169.179 31.4542C169.179 32.0245 169.008 32.5664 168.666 33.0797C168.324 33.5645 167.825 33.8069 167.169 33.8069C166.712 33.8069 166.327 33.7499 166.014 33.6358C165.729 33.4932 165.472 33.3221 165.244 33.1225C165.016 32.9229 164.745 32.7375 164.431 32.5664C164.146 32.3953 163.704 32.2669 163.105 32.1814C162.535 32.0673 162.107 32.0103 161.822 32.0103C160.367 32.0103 159.127 32.324 158.1 32.9514C157.102 33.5788 156.332 34.4343 155.79 35.518C155.248 36.5732 154.977 37.7995 154.977 39.1969C154.977 40.5657 155.248 41.792 155.79 42.8757C156.36 43.9309 157.13 44.7722 158.1 45.3996C159.098 46.027 160.239 46.3407 161.522 46.3407C162.235 46.3407 162.848 46.2979 163.362 46.2123C163.875 46.1268 164.303 45.9985 164.645 45.8273C165.044 45.5992 165.401 45.3568 165.714 45.1001C166.028 44.8435 166.499 44.7151 167.126 44.7151C167.867 44.7151 168.438 44.9575 168.837 45.4424C169.236 45.8986 169.436 46.469 169.436 47.1534C169.436 47.8664 169.037 48.5223 168.238 49.1212C167.44 49.6916 166.384 50.1621 165.073 50.5329C163.789 50.8751 162.392 51.0462 160.88 51.0462C158.628 51.0462 156.674 50.5329 155.02 49.5062C153.366 48.451 152.083 47.0251 151.17 45.2285C150.286 43.4318 149.844 41.4213 149.844 39.1969C149.844 36.8584 150.314 34.8051 151.256 33.0369C152.225 31.2403 153.551 29.8429 155.234 28.8448C156.945 27.8181 158.898 27.3048 161.094 27.3048ZM177.697 48.009C177.697 48.7505 177.455 49.3779 176.97 49.8912C176.485 50.376 175.872 50.6184 175.13 50.6184C174.389 50.6184 173.776 50.376 173.291 49.8912C172.806 49.3779 172.564 48.7505 172.564 48.009V30.342C172.564 29.6005 172.806 28.9874 173.291 28.5025C173.776 27.9892 174.389 27.7325 175.13 27.7325C175.872 27.7325 176.485 27.9892 176.97 28.5025C177.455 28.9874 177.697 29.6005 177.697 30.342V48.009ZM175.088 24.952C174.118 24.952 173.434 24.7952 173.034 24.4815C172.635 24.1678 172.436 23.6117 172.436 22.8132V22.0004C172.436 21.1734 172.649 20.6173 173.077 20.3321C173.533 20.0184 174.218 19.8615 175.13 19.8615C176.129 19.8615 176.827 20.0184 177.227 20.3321C177.626 20.6458 177.825 21.2019 177.825 22.0004V22.8132C177.825 23.6402 177.612 24.2105 177.184 24.5243C176.756 24.8094 176.057 24.952 175.088 24.952ZM194.548 27.3048C196.544 27.3048 198.327 27.8181 199.895 28.8448C201.492 29.8429 202.747 31.226 203.659 32.9942C204.601 34.7623 205.071 36.8156 205.071 39.1541C205.071 41.4926 204.601 43.5602 203.659 45.3568C202.747 47.1249 201.506 48.5223 199.938 49.549C198.398 50.5471 196.658 51.0462 194.719 51.0462C193.578 51.0462 192.509 50.8608 191.511 50.4901C190.513 50.1193 189.628 49.6488 188.858 49.0784C188.117 48.5081 187.532 47.9377 187.105 47.3673C186.705 46.7685 186.506 46.2694 186.506 45.8701L187.832 45.314V56.5645C187.832 57.3059 187.589 57.9191 187.105 58.4039C186.62 58.9172 186.007 59.1739 185.265 59.1739C184.524 59.1739 183.911 58.9315 183.426 58.4467C182.941 57.9618 182.699 57.3344 182.699 56.5645V30.342C182.699 29.6005 182.941 28.9874 183.426 28.5025C183.911 27.9892 184.524 27.7325 185.265 27.7325C186.007 27.7325 186.62 27.9892 187.105 28.5025C187.589 28.9874 187.832 29.6005 187.832 30.342V32.4381L187.105 32.0531C187.105 31.6823 187.304 31.2403 187.704 30.727C188.103 30.1851 188.645 29.6575 189.329 29.1442C190.013 28.6024 190.798 28.1603 191.682 27.8181C192.594 27.4759 193.55 27.3048 194.548 27.3048ZM193.906 32.0103C192.651 32.0103 191.553 32.324 190.612 32.9514C189.671 33.5788 188.93 34.4343 188.388 35.518C187.875 36.5732 187.618 37.7852 187.618 39.1541C187.618 40.4944 187.875 41.7207 188.388 42.8329C188.93 43.9166 189.671 44.7722 190.612 45.3996C191.553 46.027 192.651 46.3407 193.906 46.3407C195.161 46.3407 196.245 46.027 197.157 45.3996C198.098 44.7722 198.826 43.9166 199.339 42.8329C199.881 41.7207 200.152 40.4944 200.152 39.1541C200.152 37.7852 199.881 36.5732 199.339 35.518C198.826 34.4343 198.098 33.5788 197.157 32.9514C196.245 32.324 195.161 32.0103 193.906 32.0103ZM220.065 51.0462C217.641 51.0462 215.531 50.5471 213.734 49.549C211.966 48.5223 210.597 47.1392 209.628 45.3996C208.687 43.66 208.216 41.6922 208.216 39.4963C208.216 36.9297 208.729 34.748 209.756 32.9514C210.811 31.1262 212.18 29.7288 213.863 28.7592C215.545 27.7896 217.328 27.3048 219.21 27.3048C220.664 27.3048 222.033 27.6042 223.316 28.2031C224.628 28.802 225.783 29.629 226.781 30.6842C227.78 31.7108 228.564 32.9086 229.134 34.2775C229.733 35.6464 230.032 37.1008 230.032 38.6408C230.004 39.3252 229.733 39.8813 229.22 40.3091C228.706 40.7369 228.108 40.9507 227.423 40.9507H211.082L209.799 36.673H225.498L224.557 37.5286V36.3736C224.5 35.5465 224.201 34.8051 223.659 34.1491C223.145 33.4932 222.489 32.9799 221.691 32.6092C220.921 32.2099 220.094 32.0103 219.21 32.0103C218.354 32.0103 217.556 32.1244 216.814 32.3525C216.073 32.5806 215.431 32.9656 214.889 33.5075C214.347 34.0493 213.92 34.7765 213.606 35.6891C213.292 36.6017 213.135 37.7567 213.135 39.1541C213.135 40.6941 213.449 42.0059 214.077 43.0896C214.732 44.1448 215.559 44.9575 216.558 45.5279C217.584 46.0698 218.668 46.3407 219.809 46.3407C220.864 46.3407 221.705 46.2551 222.333 46.084C222.96 45.9129 223.459 45.7133 223.83 45.4851C224.229 45.2285 224.586 45.0146 224.899 44.8435C225.413 44.5868 225.897 44.4585 226.354 44.4585C226.981 44.4585 227.494 44.6724 227.894 45.1001C228.321 45.5279 228.535 46.027 228.535 46.5973C228.535 47.3673 228.136 48.066 227.338 48.6934C226.596 49.3208 225.555 49.8769 224.215 50.3617C222.874 50.818 221.491 51.0462 220.065 51.0462ZM249.081 50.6184C248.283 50.6184 247.627 50.376 247.113 49.8912C246.629 49.3779 246.386 48.7505 246.386 48.009V23.2837C246.386 22.5422 246.629 21.9291 247.113 21.4443C247.627 20.931 248.254 20.6743 248.996 20.6743H262.898C263.64 20.6743 264.253 20.9167 264.738 21.4015C265.251 21.8578 265.508 22.4567 265.508 23.1982C265.508 23.8256 265.251 24.3817 264.738 24.8665C264.253 25.3513 263.64 25.5937 262.898 25.5937H251.348L251.733 25.0804V33.6786L251.434 33.1225H260.973C261.715 33.1225 262.328 33.3649 262.813 33.8497C263.326 34.306 263.583 34.9049 263.583 35.6464C263.583 36.2738 263.326 36.8299 262.813 37.3147C262.328 37.7995 261.715 38.0419 260.973 38.0419H251.348L251.733 37.6569V48.009C251.733 48.7505 251.462 49.3779 250.921 49.8912C250.407 50.376 249.794 50.6184 249.081 50.6184ZM274.538 48.009C274.538 48.7505 274.296 49.3779 273.811 49.8912C273.326 50.376 272.713 50.6184 271.972 50.6184C271.23 50.6184 270.617 50.376 270.132 49.8912C269.648 49.3779 269.405 48.7505 269.405 48.009V30.342C269.405 29.6005 269.648 28.9874 270.132 28.5025C270.617 27.9892 271.23 27.7325 271.972 27.7325C272.713 27.7325 273.326 27.9892 273.811 28.5025C274.296 28.9874 274.538 29.6005 274.538 30.342V48.009ZM271.929 24.952C270.959 24.952 270.275 24.7952 269.876 24.4815C269.476 24.1678 269.277 23.6117 269.277 22.8132V22.0004C269.277 21.1734 269.491 20.6173 269.918 20.3321C270.375 20.0184 271.059 19.8615 271.972 19.8615C272.97 19.8615 273.669 20.0184 274.068 20.3321C274.467 20.6458 274.667 21.2019 274.667 22.0004V22.8132C274.667 23.6402 274.453 24.2105 274.025 24.5243C273.597 24.8094 272.899 24.952 271.929 24.952ZM291.774 27.3048C293.885 27.3048 295.482 27.7468 296.565 28.6309C297.677 29.5149 298.433 30.6984 298.832 32.1814C299.26 33.6358 299.474 35.2614 299.474 37.058V48.009C299.474 48.7505 299.232 49.3779 298.747 49.8912C298.262 50.376 297.649 50.6184 296.907 50.6184C296.166 50.6184 295.553 50.376 295.068 49.8912C294.583 49.3779 294.341 48.7505 294.341 48.009V37.058C294.341 36.1169 294.212 35.2756 293.956 34.5341C293.728 33.7641 293.3 33.151 292.672 32.6947C292.045 32.2384 291.147 32.0103 289.978 32.0103C288.837 32.0103 287.867 32.2384 287.069 32.6947C286.299 33.151 285.7 33.7641 285.272 34.5341C284.873 35.2756 284.673 36.1169 284.673 37.058V48.009C284.673 48.7505 284.431 49.3779 283.946 49.8912C283.461 50.376 282.848 50.6184 282.106 50.6184C281.365 50.6184 280.752 50.376 280.267 49.8912C279.782 49.3779 279.54 48.7505 279.54 48.009V30.342C279.54 29.6005 279.782 28.9874 280.267 28.5025C280.752 27.9892 281.365 27.7325 282.106 27.7325C282.848 27.7325 283.461 27.9892 283.946 28.5025C284.431 28.9874 284.673 29.6005 284.673 30.342V32.1814L284.031 32.0531C284.288 31.5682 284.659 31.0549 285.144 30.5131C285.628 29.9427 286.199 29.4151 286.855 28.9303C287.511 28.4455 288.252 28.0605 289.079 27.7753C289.906 27.4616 290.805 27.3048 291.774 27.3048ZM323.485 18.9632C324.226 18.9632 324.839 19.2056 325.324 19.6904C325.809 20.1752 326.051 20.8026 326.051 21.5726V48.009C326.051 48.7505 325.809 49.3779 325.324 49.8912C324.839 50.376 324.226 50.6184 323.485 50.6184C322.743 50.6184 322.13 50.376 321.645 49.8912C321.16 49.3779 320.918 48.7505 320.918 48.009V45.9129L321.859 46.2979C321.859 46.6686 321.66 47.1249 321.26 47.6668C320.861 48.1801 320.319 48.6934 319.635 49.2068C318.95 49.7201 318.138 50.1621 317.196 50.5329C316.284 50.8751 315.286 51.0462 314.202 51.0462C312.234 51.0462 310.452 50.5471 308.855 49.549C307.258 48.5223 305.989 47.1249 305.048 45.3568C304.135 43.5602 303.679 41.5068 303.679 39.1969C303.679 36.8584 304.135 34.8051 305.048 33.0369C305.989 31.2403 307.244 29.8429 308.812 28.8448C310.381 27.8181 312.12 27.3048 314.031 27.3048C315.257 27.3048 316.384 27.4901 317.41 27.8609C318.437 28.2316 319.321 28.7022 320.062 29.2725C320.832 29.8429 321.417 30.4275 321.816 31.0264C322.244 31.5968 322.458 32.0816 322.458 32.4808L320.918 33.0369V21.5726C320.918 20.8311 321.16 20.218 321.645 19.7332C322.13 19.2199 322.743 18.9632 323.485 18.9632ZM314.844 46.3407C316.098 46.3407 317.196 46.027 318.138 45.3996C319.079 44.7722 319.806 43.9166 320.319 42.8329C320.861 41.7492 321.132 40.5372 321.132 39.1969C321.132 37.828 320.861 36.6017 320.319 35.518C319.806 34.4343 319.079 33.5788 318.138 32.9514C317.196 32.324 316.098 32.0103 314.844 32.0103C313.617 32.0103 312.534 32.324 311.593 32.9514C310.651 33.5788 309.91 34.4343 309.368 35.518C308.855 36.6017 308.598 37.828 308.598 39.1969C308.598 40.5372 308.855 41.7492 309.368 42.8329C309.91 43.9166 310.651 44.7722 311.593 45.3996C312.534 46.027 313.617 46.3407 314.844 46.3407ZM342.115 51.0462C339.691 51.0462 337.581 50.5471 335.784 49.549C334.016 48.5223 332.647 47.1392 331.677 45.3996C330.736 43.66 330.266 41.6922 330.266 39.4963C330.266 36.9297 330.779 34.748 331.806 32.9514C332.861 31.1262 334.23 29.7288 335.912 28.7592C337.595 27.7896 339.377 27.3048 341.259 27.3048C342.714 27.3048 344.083 27.6042 345.366 28.2031C346.678 28.802 347.833 29.629 348.831 30.6842C349.829 31.7108 350.613 32.9086 351.184 34.2775C351.783 35.6464 352.082 37.1008 352.082 38.6408C352.054 39.3252 351.783 39.8813 351.269 40.3091C350.756 40.7369 350.157 40.9507 349.473 40.9507H333.132L331.848 36.673H347.548L346.607 37.5286V36.3736C346.55 35.5465 346.25 34.8051 345.708 34.1491C345.195 33.4932 344.539 32.9799 343.741 32.6092C342.971 32.2099 342.144 32.0103 341.259 32.0103C340.404 32.0103 339.605 32.1244 338.864 32.3525C338.122 32.5806 337.481 32.9656 336.939 33.5075C336.397 34.0493 335.969 34.7765 335.656 35.6891C335.342 36.6017 335.185 37.7567 335.185 39.1541C335.185 40.6941 335.499 42.0059 336.126 43.0896C336.782 44.1448 337.609 44.9575 338.607 45.5279C339.634 46.0698 340.718 46.3407 341.858 46.3407C342.914 46.3407 343.755 46.2551 344.382 46.084C345.01 45.9129 345.509 45.7133 345.879 45.4851C346.279 45.2285 346.635 45.0146 346.949 44.8435C347.462 44.5868 347.947 44.4585 348.403 44.4585C349.031 44.4585 349.544 44.6724 349.943 45.1001C350.371 45.5279 350.585 46.027 350.585 46.5973C350.585 47.3673 350.186 48.066 349.387 48.6934C348.646 49.3208 347.605 49.8769 346.264 50.3617C344.924 50.818 343.541 51.0462 342.115 51.0462ZM358.859 50.6184C358.118 50.6184 357.505 50.376 357.02 49.8912C356.535 49.3779 356.293 48.7505 356.293 48.009V30.342C356.293 29.6005 356.535 28.9874 357.02 28.5025C357.505 27.9892 358.118 27.7325 358.859 27.7325C359.601 27.7325 360.214 27.9892 360.699 28.5025C361.184 28.9874 361.426 29.6005 361.426 30.342V34.363L361.127 31.497C361.44 30.8125 361.84 30.2136 362.324 29.7003C362.838 29.1585 363.408 28.7164 364.036 28.3742C364.663 28.0035 365.333 27.7325 366.046 27.5614C366.759 27.3903 367.472 27.3048 368.185 27.3048C369.04 27.3048 369.753 27.5472 370.324 28.032C370.923 28.5168 371.222 29.0872 371.222 29.7431C371.222 30.6842 370.98 31.3686 370.495 31.7964C370.01 32.1956 369.483 32.3953 368.912 32.3953C368.37 32.3953 367.871 32.2955 367.415 32.0958C366.987 31.8962 366.488 31.7964 365.918 31.7964C365.404 31.7964 364.877 31.9247 364.335 32.1814C363.822 32.4095 363.337 32.7803 362.881 33.2936C362.453 33.8069 362.096 34.4486 361.811 35.2186C361.554 35.9601 361.426 36.8441 361.426 37.8708V48.009C361.426 48.7505 361.184 49.3779 360.699 49.8912C360.214 50.376 359.601 50.6184 358.859 50.6184Z" fill="#105B27"/>
<path d="M77.6761 72.4087L62.7637 57.5401C67.5751 51.4105 70.1857 43.8411 70.176 36.0487C70.176 29.109 68.1182 22.3251 64.2626 16.5549C60.4071 10.7847 54.9271 6.28735 48.5156 3.63163C42.1041 0.975896 35.0491 0.281037 28.2427 1.63492C21.4363 2.98879 15.1842 6.3306 10.2771 11.2378C5.36991 16.1449 2.0281 22.397 0.674222 29.2034C-0.679657 36.0098 0.015203 43.0648 2.67093 49.4763C5.32666 55.8878 9.82398 61.3678 15.5942 65.2233C21.3644 69.0789 28.1483 71.1367 35.088 71.1367C42.8804 71.1464 50.4498 68.5358 56.5794 63.7244L71.448 78.6368C71.8557 79.0479 72.3408 79.3742 72.8753 79.5969C73.4098 79.8195 73.983 79.9342 74.562 79.9342C75.1411 79.9342 75.7143 79.8195 76.2488 79.5969C76.7833 79.3742 77.2684 79.0479 77.6761 78.6368C78.0872 78.2291 78.4135 77.744 78.6362 77.2095C78.8588 76.675 78.9735 76.1018 78.9735 75.5227C78.9735 74.9437 78.8588 74.3705 78.6362 73.836C78.4135 73.3015 78.0872 72.8164 77.6761 72.4087ZM8.77202 36.0487C8.77202 30.8439 10.3154 25.756 13.2071 21.4283C16.0987 17.1007 20.2087 13.7277 25.0173 11.7359C29.826 9.7441 35.1172 9.22296 40.222 10.2384C45.3268 11.2538 50.0159 13.7601 53.6963 17.4405C57.3766 21.1209 59.883 25.8099 60.8984 30.9147C61.9138 36.0195 61.3927 41.3108 59.4009 46.1194C57.4091 50.9281 54.0361 55.038 49.7084 57.9297C45.3808 60.8213 40.2929 62.3647 35.088 62.3647C28.1086 62.3647 21.415 59.5922 16.4798 54.657C11.5446 49.7217 8.77202 43.0282 8.77202 36.0487Z" fill="#F2994A"/>
<path d="M60.0008 42.6576C56.0741 46.8695 50.4253 48.9974 43.208 48.9974C42.9338 48.9974 42.6596 48.9974 42.3853 48.9864C40.9265 50.9717 39.5445 53.1106 38.4038 55.3263C38.2063 55.7102 37.8224 55.9295 37.4276 55.9295C37.263 55.9295 37.0875 55.8857 36.934 55.8089C36.3855 55.5347 36.1771 54.8656 36.4514 54.3281C37.0656 53.1216 37.7456 51.9479 38.4696 50.8182C38.5573 48.9097 38.2612 46.9682 37.7127 45.0378C29.0037 43.8532 22.4665 40.2884 18.3094 34.4531C10.8288 23.9782 13.6697 10.092 13.7904 9.51066C13.911 8.95127 14.4375 8.58931 15.0079 8.64415C25.8558 10.0481 33.457 14.1394 37.614 20.8302C43.6029 30.4606 40.3671 42.0872 39.731 44.1164V44.1274C40.1039 45.3339 40.3781 46.5734 40.5317 47.8018C40.5865 47.7141 40.6523 47.6373 40.7181 47.5496C40.6084 45.6081 40.5426 37.7876 45.9392 31.6781C50.0743 26.9835 56.3812 24.5047 64.6844 24.3072C65.2657 24.2963 65.7593 24.746 65.8032 25.3273C65.8251 25.7551 66.4613 35.7255 60.0008 42.6576Z" fill="#219653"/>
</svg>
